<svg xmlns="http://www.w3.org/2000/svg" xmlns:xlink="http://www.w3.org/1999/xlink" width="471.196" height="498.335" viewBox="0 0 471.196 498.335">
  <defs>
    <linearGradient id="linear-gradient" x1="0.384" x2="0.616" y2="1" gradientUnits="objectBoundingBox">
      <stop offset="0" stop-color="#ff8f71"/>
      <stop offset="1" stop-color="#ff3e55"/>
    </linearGradient>
    <linearGradient id="linear-gradient-3" x1="0" y1="0.425" x2="1" y2="0.575" xlink:href="#linear-gradient"/>
  </defs>
  <g id="illustration-phones" transform="translate(-40.187 -20.212)">
    <g id="Group_1" data-name="Group 1" transform="translate(40 20)">
      <rect id="Rectangle_1" data-name="Rectangle 1" width="204" height="423" rx="22" transform="translate(8 5)" fill="url(#linear-gradient)"/>
      <path id="Path_1" data-name="Path 1" d="M65,227.56V202.282h9.316a11.523,11.523,0,0,1,4.5.8,6.573,6.573,0,0,1,2.925,2.28,5.916,5.916,0,0,1,1.03,3.47,6.25,6.25,0,0,1-.795,3.187,5.63,5.63,0,0,1-2.24,2.154,6.211,6.211,0,0,1,3.034,2.367,6.725,6.725,0,0,1,1.083,3.828,6.342,6.342,0,0,1-1.155,3.809,7.509,7.509,0,0,1-3.25,2.492,12.593,12.593,0,0,1-4.947.89H65Zm5.2-20.9v5.8h3.539a4.416,4.416,0,0,0,2.726-.73,2.542,2.542,0,0,0,.957-2.154,2.593,2.593,0,0,0-.957-2.172,4.346,4.346,0,0,0-2.726-.747H70.2Zm0,16.52h4.044a5,5,0,0,0,3.124-.854,3.291,3.291,0,0,0,0-4.913,5,5,0,0,0-3.124-.855H70.2Zm16.863,4.38V201h5.056v26.56H87.063Zm18.272.533a10.2,10.2,0,0,1-3.936-.747,9.577,9.577,0,0,1-3.142-2.083,9.438,9.438,0,0,1-2.076-3.151,10.358,10.358,0,0,1-.74-3.952,10.014,10.014,0,0,1,.758-3.934,9.78,9.78,0,0,1,2.112-3.15,9.594,9.594,0,0,1,3.178-2.1,10.41,10.41,0,0,1,3.99-.748,10.194,10.194,0,0,1,3.936.748,9.469,9.469,0,0,1,5.218,5.216,10.751,10.751,0,0,1-.018,7.885,9.73,9.73,0,0,1-2.112,3.169,9.594,9.594,0,0,1-3.178,2.1,10.411,10.411,0,0,1-3.99.748Zm.072-4.486a4.371,4.371,0,0,0,2.456-.712,5.014,5.014,0,0,0,1.715-1.94,6.5,6.5,0,0,0,0-5.59,5.029,5.029,0,0,0-1.715-1.94,4.59,4.59,0,0,0-4.911,0,5.023,5.023,0,0,0-1.716,1.94,6.5,6.5,0,0,0,0,5.59,5.009,5.009,0,0,0,1.716,1.94A4.365,4.365,0,0,0,105.407,223.607Zm21.124,3.418a8.081,8.081,0,0,1-3.376-.712,8.3,8.3,0,0,1-2.726-1.976,9.246,9.246,0,0,1-1.806-2.955,10.091,10.091,0,0,1-.65-3.649,10.329,10.329,0,0,1,.668-3.756,9.131,9.131,0,0,1,1.878-3.008,8.894,8.894,0,0,1,2.817-2.012,8.328,8.328,0,0,1,3.484-.73,7.418,7.418,0,0,1,3.322.73,6.447,6.447,0,0,1,2.456,2.118l.108-2.314h4.658v16.555a10.648,10.648,0,0,1-.7,3.952,8.774,8.774,0,0,1-2,3.062,8.961,8.961,0,0,1-3.087,1.976,10.836,10.836,0,0,1-3.954.694,10.515,10.515,0,0,1-3.828-.659,9.174,9.174,0,0,1-2.961-1.833,8.656,8.656,0,0,1-1.986-2.742l4.839-1.174a4.737,4.737,0,0,0,1.679,1.62,5,5,0,0,0,4.766-.036,4.283,4.283,0,0,0,1.607-1.745,5.638,5.638,0,0,0,.578-2.616v-1.531a6.8,6.8,0,0,1-2.474,2.011,7.437,7.437,0,0,1-3.3.73Zm1.228-4.415a4.3,4.3,0,0,0,2.365-.658,4.816,4.816,0,0,0,1.643-1.78,5.584,5.584,0,0,0,0-5.091,4.816,4.816,0,0,0-1.643-1.78,4.567,4.567,0,0,0-4.73,0,4.816,4.816,0,0,0-1.643,1.78,5.583,5.583,0,0,0,0,5.091,4.835,4.835,0,0,0,1.643,1.78,4.291,4.291,0,0,0,2.365.658Zm13.65,4.95v-18.8h4.658l.18,2.848a5.547,5.547,0,0,1,1.95-2.3,5.171,5.171,0,0,1,2.89-.8,5.849,5.849,0,0,1,1.01.089,5.7,5.7,0,0,1,.9.231l-.542,4.914a3.86,3.86,0,0,0-.812-.2,6.639,6.639,0,0,0-.849-.054,4.067,4.067,0,0,0-3.213,1.264,5.217,5.217,0,0,0-1.12,3.578v9.221h-5.055Z" fill="#fff"/>
      <path id="Path_2" data-name="Path 2" d="M204.442,401.894c0,10.587-7.815,19.708-18.4,19.708H35.126c-10.584,0-19.786-9.121-19.786-19.708V30.059c0-10.587,9.2-18.327,19.786-18.327H52.573c3.689,0,5.051-.422,5.275,4.255a9.027,9.027,0,0,0,2.435,5.881,13.1,13.1,0,0,0,5.646,3.5,16.765,16.765,0,0,0,4.861.914h79.751A16.922,16.922,0,0,0,155.4,25.27a13.2,13.2,0,0,0,5.647-3.392,8.683,8.683,0,0,0,2.434-5.773c.223-4.676,1.587-4.373,5.276-4.373h17.285c10.583,0,18.4,7.74,18.4,18.327V401.894ZM98.847,13.55h23.637a1.651,1.651,0,0,1,1.819,1.515,1.652,1.652,0,0,1-1.819,1.516H98.847a1.65,1.65,0,0,1-1.818-1.516,1.65,1.65,0,0,1,1.818-1.515Zm36.063.522a2.653,2.653,0,1,1-2.653-2.653A2.653,2.653,0,0,1,134.91,14.072ZM215.958,99.04V31.254A31.037,31.037,0,0,0,184.926.212H34.148A32.244,32.244,0,0,0,2.006,32.367V57.206A1.819,1.819,0,0,0,.187,59.024V71.757a1.82,1.82,0,0,0,1.819,1.82V88.734a1.82,1.82,0,0,0-1.819,1.82v27.284a1.82,1.82,0,0,0,1.819,1.818v9.1a1.82,1.82,0,0,0-1.819,1.818v27.285a1.82,1.82,0,0,0,1.819,1.82V403.29a32.345,32.345,0,0,0,32.243,32.257H184.926A31.13,31.13,0,0,0,215.958,404.5V149.364h.6a1.819,1.819,0,0,0,1.82-1.819V100.86a1.82,1.82,0,0,0-1.82-1.82h-.6Z"/>
      <path id="Path_3" data-name="Path 3" d="M204.442,401.894c0,10.587-7.815,19.708-18.4,19.708H35.126c-10.584,0-19.786-9.121-19.786-19.708V30.059c0-10.587,9.2-18.327,19.786-18.327H52.573c3.689,0,5.051-.422,5.275,4.255a9.027,9.027,0,0,0,2.435,5.881,13.1,13.1,0,0,0,5.646,3.5,16.765,16.765,0,0,0,4.861.914h79.751A16.922,16.922,0,0,0,155.4,25.27a13.2,13.2,0,0,0,5.647-3.392,8.683,8.683,0,0,0,2.434-5.773c.223-4.676,1.587-4.373,5.276-4.373h17.285c10.583,0,18.4,7.74,18.4,18.327V401.894ZM98.847,13.55h23.637a1.651,1.651,0,0,1,1.819,1.515,1.652,1.652,0,0,1-1.819,1.516H98.847a1.65,1.65,0,0,1-1.818-1.516,1.65,1.65,0,0,1,1.818-1.515Zm36.063.522a2.653,2.653,0,1,1-2.653-2.653A2.653,2.653,0,0,1,134.91,14.072ZM215.958,99.04V31.254A31.037,31.037,0,0,0,184.926.212H34.148A32.244,32.244,0,0,0,2.006,32.367V57.206A1.819,1.819,0,0,0,.187,59.024V71.757a1.82,1.82,0,0,0,1.819,1.82V88.734a1.82,1.82,0,0,0-1.819,1.82v27.284a1.82,1.82,0,0,0,1.819,1.818v9.1a1.82,1.82,0,0,0-1.819,1.818v27.285a1.82,1.82,0,0,0,1.819,1.82V403.29a32.345,32.345,0,0,0,32.243,32.257H184.926A31.13,31.13,0,0,0,215.958,404.5V149.364h.6a1.819,1.819,0,0,0,1.82-1.819V100.86a1.82,1.82,0,0,0-1.82-1.82h-.6Z" fill="#1d1d25"/>
      <path id="Path_4" data-name="Path 4" d="M122.484,13.55H98.847a1.652,1.652,0,0,0-1.819,1.517,1.651,1.651,0,0,0,1.82,1.515h23.636a1.652,1.652,0,0,0,1.82-1.515,1.653,1.653,0,0,0-1.82-1.517m9.774-2.13a2.653,2.653,0,1,0,2.654,2.652,2.653,2.653,0,0,0-2.654-2.652" fill-rule="evenodd"/>
    </g>
    <g id="Group_8" data-name="Group 8" transform="translate(293 83)">
      <rect id="Rectangle_2" data-name="Rectangle 2" width="204" height="423" rx="22" transform="translate(8 5)" fill="url(#linear-gradient)"/>
      <rect id="Rectangle_3" data-name="Rectangle 3" width="189.335" height="414.321" rx="22" transform="translate(15 11)" fill="#fff"/>
      <rect id="Rectangle_4" data-name="Rectangle 4" width="189.335" height="73.269" rx="22" transform="translate(15 11)" fill="url(#linear-gradient-3)"/>
      <g id="Group_2" data-name="Group 2" transform="translate(26.343 57.23)">
        <rect id="Rectangle_5" data-name="Rectangle 5" width="166.649" height="58.441" rx="4"/>
        <rect id="Rectangle_6" data-name="Rectangle 6" width="166.649" height="58.441" rx="4" fill="#fff"/>
      </g>
      <g id="Group_3" data-name="Group 3" transform="translate(26.343 57.23)">
        <rect id="Rectangle_7" data-name="Rectangle 7" width="166.649" height="58.441" rx="4" transform="translate(0 72.397)"/>
        <rect id="Rectangle_8" data-name="Rectangle 8" width="166.649" height="58.441" rx="4" transform="translate(0 72.397)" fill="#fff"/>
      </g>
      <g id="Group_4" data-name="Group 4" transform="translate(26.343 57.23)">
        <rect id="Rectangle_9" data-name="Rectangle 9" width="166.649" height="58.441" rx="4" transform="translate(0 144.794)"/>
        <rect id="Rectangle_10" data-name="Rectangle 10" width="166.649" height="58.441" rx="4" transform="translate(0 144.794)" fill="#fff"/>
      </g>
      <g id="Group_5" data-name="Group 5" transform="translate(26.343 57.23)">
        <rect id="Rectangle_11" data-name="Rectangle 11" width="166.649" height="58.441" rx="4" transform="translate(0 217.192)"/>
        <rect id="Rectangle_12" data-name="Rectangle 12" width="166.649" height="58.441" rx="4" transform="translate(0 217.192)" fill="#fff"/>
      </g>
      <g id="Group_6" data-name="Group 6" transform="translate(26.343 57.23)">
        <rect id="Rectangle_13" data-name="Rectangle 13" width="166.649" height="58.441" rx="4" transform="translate(0 289.589)"/>
        <rect id="Rectangle_14" data-name="Rectangle 14" width="166.649" height="58.441" rx="4" transform="translate(0 289.589)" fill="#fff"/>
      </g>
      <path id="Path_5" data-name="Path 5" d="M65,227.56V202.282h9.316a11.523,11.523,0,0,1,4.5.8,6.573,6.573,0,0,1,2.925,2.28,5.916,5.916,0,0,1,1.03,3.47,6.25,6.25,0,0,1-.795,3.187,5.63,5.63,0,0,1-2.24,2.154,6.211,6.211,0,0,1,3.034,2.367,6.725,6.725,0,0,1,1.083,3.828,6.342,6.342,0,0,1-1.155,3.809,7.509,7.509,0,0,1-3.25,2.492,12.593,12.593,0,0,1-4.947.89H65Zm5.2-20.9v5.8h3.539a4.416,4.416,0,0,0,2.726-.73,2.542,2.542,0,0,0,.957-2.154,2.593,2.593,0,0,0-.957-2.172,4.346,4.346,0,0,0-2.726-.747H70.2Zm0,16.52h4.044a5,5,0,0,0,3.124-.854,3.291,3.291,0,0,0,0-4.913,5,5,0,0,0-3.124-.855H70.2Zm16.863,4.38V201h5.056v26.56H87.063Zm18.272.533a10.2,10.2,0,0,1-3.936-.747,9.577,9.577,0,0,1-3.142-2.083,9.438,9.438,0,0,1-2.076-3.151,10.358,10.358,0,0,1-.74-3.952,10.014,10.014,0,0,1,.758-3.934,9.78,9.78,0,0,1,2.112-3.15,9.594,9.594,0,0,1,3.178-2.1,10.41,10.41,0,0,1,3.99-.748,10.194,10.194,0,0,1,3.936.748,9.469,9.469,0,0,1,5.218,5.216,10.751,10.751,0,0,1-.018,7.885,9.73,9.73,0,0,1-2.112,3.169,9.594,9.594,0,0,1-3.178,2.1,10.411,10.411,0,0,1-3.99.748Zm.072-4.486a4.371,4.371,0,0,0,2.456-.712,5.014,5.014,0,0,0,1.715-1.94,6.5,6.5,0,0,0,0-5.59,5.029,5.029,0,0,0-1.715-1.94,4.59,4.59,0,0,0-4.911,0,5.023,5.023,0,0,0-1.716,1.94,6.5,6.5,0,0,0,0,5.59,5.009,5.009,0,0,0,1.716,1.94A4.365,4.365,0,0,0,105.407,223.607Zm21.124,3.418a8.081,8.081,0,0,1-3.376-.712,8.3,8.3,0,0,1-2.726-1.976,9.246,9.246,0,0,1-1.806-2.955,10.091,10.091,0,0,1-.65-3.649,10.329,10.329,0,0,1,.668-3.756,9.131,9.131,0,0,1,1.878-3.008,8.894,8.894,0,0,1,2.817-2.012,8.328,8.328,0,0,1,3.484-.73,7.418,7.418,0,0,1,3.322.73,6.447,6.447,0,0,1,2.456,2.118l.108-2.314h4.658v16.555a10.648,10.648,0,0,1-.7,3.952,8.774,8.774,0,0,1-2,3.062,8.961,8.961,0,0,1-3.087,1.976,10.836,10.836,0,0,1-3.954.694,10.515,10.515,0,0,1-3.828-.659,9.174,9.174,0,0,1-2.961-1.833,8.656,8.656,0,0,1-1.986-2.742l4.839-1.174a4.737,4.737,0,0,0,1.679,1.62,5,5,0,0,0,4.766-.036,4.283,4.283,0,0,0,1.607-1.745,5.638,5.638,0,0,0,.578-2.616v-1.531a6.8,6.8,0,0,1-2.474,2.011,7.437,7.437,0,0,1-3.3.73Zm1.228-4.415a4.3,4.3,0,0,0,2.365-.658,4.816,4.816,0,0,0,1.643-1.78,5.584,5.584,0,0,0,0-5.091,4.816,4.816,0,0,0-1.643-1.78,4.567,4.567,0,0,0-4.73,0,4.816,4.816,0,0,0-1.643,1.78,5.583,5.583,0,0,0,0,5.091,4.835,4.835,0,0,0,1.643,1.78,4.291,4.291,0,0,0,2.365.658Zm13.65,4.95v-18.8h4.658l.18,2.848a5.547,5.547,0,0,1,1.95-2.3,5.171,5.171,0,0,1,2.89-.8,5.849,5.849,0,0,1,1.01.089,5.7,5.7,0,0,1,.9.231l-.542,4.914a3.86,3.86,0,0,0-.812-.2,6.639,6.639,0,0,0-.849-.054,4.067,4.067,0,0,0-3.213,1.264,5.217,5.217,0,0,0-1.12,3.578v9.221h-5.055Z" fill="#fff"/>
      <g id="Group_7" data-name="Group 7">
        <path id="Path_6" data-name="Path 6" d="M204.442,401.894c0,10.587-7.815,19.708-18.4,19.708H35.126c-10.584,0-19.786-9.121-19.786-19.708V30.059c0-10.587,9.2-18.327,19.786-18.327H52.573c3.689,0,5.051-.422,5.275,4.255a9.027,9.027,0,0,0,2.435,5.881,13.1,13.1,0,0,0,5.646,3.5,16.765,16.765,0,0,0,4.861.914h79.751A16.922,16.922,0,0,0,155.4,25.27a13.2,13.2,0,0,0,5.647-3.392,8.683,8.683,0,0,0,2.434-5.773c.223-4.676,1.587-4.373,5.276-4.373h17.285c10.583,0,18.4,7.74,18.4,18.327V401.894ZM98.847,13.55h23.637a1.651,1.651,0,0,1,1.819,1.515,1.652,1.652,0,0,1-1.819,1.516H98.847a1.65,1.65,0,0,1-1.818-1.516,1.65,1.65,0,0,1,1.818-1.515Zm36.063.522a2.653,2.653,0,1,1-2.653-2.653A2.653,2.653,0,0,1,134.91,14.072ZM215.958,99.04V31.254A31.037,31.037,0,0,0,184.926.212H34.148A32.244,32.244,0,0,0,2.006,32.367V57.206A1.819,1.819,0,0,0,.187,59.024V71.757a1.82,1.82,0,0,0,1.819,1.82V88.734a1.82,1.82,0,0,0-1.819,1.82v27.284a1.82,1.82,0,0,0,1.819,1.818v9.1a1.82,1.82,0,0,0-1.819,1.818v27.285a1.82,1.82,0,0,0,1.819,1.82V403.29a32.345,32.345,0,0,0,32.243,32.257H184.926A31.13,31.13,0,0,0,215.958,404.5V149.364h.6a1.819,1.819,0,0,0,1.82-1.819V100.86a1.82,1.82,0,0,0-1.82-1.82h-.6Z"/>
        <path id="Path_7" data-name="Path 7" d="M204.442,401.894c0,10.587-7.815,19.708-18.4,19.708H35.126c-10.584,0-19.786-9.121-19.786-19.708V30.059c0-10.587,9.2-18.327,19.786-18.327H52.573c3.689,0,5.051-.422,5.275,4.255a9.027,9.027,0,0,0,2.435,5.881,13.1,13.1,0,0,0,5.646,3.5,16.765,16.765,0,0,0,4.861.914h79.751A16.922,16.922,0,0,0,155.4,25.27a13.2,13.2,0,0,0,5.647-3.392,8.683,8.683,0,0,0,2.434-5.773c.223-4.676,1.587-4.373,5.276-4.373h17.285c10.583,0,18.4,7.74,18.4,18.327V401.894ZM98.847,13.55h23.637a1.651,1.651,0,0,1,1.819,1.515,1.652,1.652,0,0,1-1.819,1.516H98.847a1.65,1.65,0,0,1-1.818-1.516,1.65,1.65,0,0,1,1.818-1.515Zm36.063.522a2.653,2.653,0,1,1-2.653-2.653A2.653,2.653,0,0,1,134.91,14.072ZM215.958,99.04V31.254A31.037,31.037,0,0,0,184.926.212H34.148A32.244,32.244,0,0,0,2.006,32.367V57.206A1.819,1.819,0,0,0,.187,59.024V71.757a1.82,1.82,0,0,0,1.819,1.82V88.734a1.82,1.82,0,0,0-1.819,1.82v27.284a1.82,1.82,0,0,0,1.819,1.818v9.1a1.82,1.82,0,0,0-1.819,1.818v27.285a1.82,1.82,0,0,0,1.819,1.82V403.29a32.345,32.345,0,0,0,32.243,32.257H184.926A31.13,31.13,0,0,0,215.958,404.5V149.364h.6a1.819,1.819,0,0,0,1.82-1.819V100.86a1.82,1.82,0,0,0-1.82-1.82h-.6Z" fill="#1d1d25"/>
        <path id="Path_8" data-name="Path 8" d="M122.484,13.55H98.847a1.652,1.652,0,0,0-1.819,1.517,1.651,1.651,0,0,0,1.82,1.515h23.636a1.652,1.652,0,0,0,1.82-1.515,1.653,1.653,0,0,0-1.82-1.517m9.774-2.13a2.653,2.653,0,1,0,2.654,2.652,2.653,2.653,0,0,0-2.654-2.652" fill-rule="evenodd"/>
      </g>
    </g>
  </g>
</svg>
