<svg xmlns="http://www.w3.org/2000/svg" xmlns:xlink="http://www.w3.org/1999/xlink" width="328" height="326" viewBox="0 0 328 326">
  <defs>
    <linearGradient id="linear-gradient" y1="0.278" x2="1" y2="0.722" gradientUnits="objectBoundingBox">
      <stop offset="0" stop-color="#ff8f71"/>
      <stop offset="1" stop-color="#ff3e55"/>
    </linearGradient>
  </defs>
  <g id="illustration-laptop-mobile" transform="translate(-85 -17)">
    <g id="Group_1" data-name="Group 1" transform="translate(86 17)">
      <rect id="Rectangle_1" data-name="Rectangle 1" width="223" height="223" rx="111.5" transform="translate(52 53)" fill="#2d2e40" opacity="0.08"/>
      <rect id="Rectangle_2" data-name="Rectangle 2" width="251" height="251" rx="125.5" transform="translate(37.5 37.5)" fill="none" stroke="#2d2e40" stroke-width="1" opacity="0.5"/>
      <rect id="Rectangle_3" data-name="Rectangle 3" width="325" height="325" rx="162.5" transform="translate(0.5 0.5)" fill="none" stroke="#2d2e40" stroke-width="1" opacity="0.25"/>
    </g>
    <g id="Group_7" data-name="Group 7" transform="translate(85 85)">
      <rect id="Rectangle_4" data-name="Rectangle 4" width="252" height="173" rx="12" transform="translate(39 7)" fill="#535353"/>
      <rect id="Rectangle_5" data-name="Rectangle 5" width="250" height="170" rx="10" transform="translate(40 9)" fill="#1d1d25"/>
      <g id="Group_4" data-name="Group 4" transform="translate(47 15)">
        <rect id="Rectangle_6" data-name="Rectangle 6" width="237" height="157.94" rx="3" fill="url(#linear-gradient)"/>
        <rect id="Rectangle_7" data-name="Rectangle 7" width="237" height="129.709" rx="3" transform="translate(-0.152 28.352)" fill="#f9f6f6"/>
        <g id="Group_3" data-name="Group 3">
          <g id="Group_2" data-name="Group 2" transform="translate(33.478 17.615)">
            <rect id="Rectangle_8" data-name="Rectangle 8" width="49.951" height="120.635" rx="3" fill="#fff"/>
            <rect id="Rectangle_9" data-name="Rectangle 9" width="111.592" height="120.635" rx="3" transform="translate(58.453)" fill="#fff"/>
            <rect id="Rectangle_10" data-name="Rectangle 10" width="102.027" height="28.291" rx="3" transform="translate(63.235 6.405)" fill="#e7e7e7"/>
            <rect id="Rectangle_11" data-name="Rectangle 11" width="30.289" height="28.291" rx="3" transform="translate(63.235 40.568)" fill="#e7e7e7"/>
            <rect id="Rectangle_12" data-name="Rectangle 12" width="64.298" height="28.291" rx="3" transform="translate(100.964 40.568)" fill="#e7e7e7"/>
          </g>
        </g>
      </g>
      <g id="Group_5" data-name="Group 5" transform="translate(164)" opacity="0.098">
        <rect id="Rectangle_13" data-name="Rectangle 13" width="6.12" height="1" rx="0.5" fill="#4a5166"/>
        <rect id="Rectangle_14" data-name="Rectangle 14" width="1.44" height="1" rx="0.5" transform="translate(7.56)" fill="#4a5166"/>
      </g>
      <g id="Group_6" data-name="Group 6" transform="translate(0 178)">
        <path id="Path_1" data-name="Path 1" d="M3,0H324.953a3,3,0,0,1,3,3V7.6H0V3A3,3,0,0,1,3,0Z" fill="#52526f"/>
        <rect id="Rectangle_15" data-name="Rectangle 15" width="53.567" height="23.187" rx="10" transform="translate(137.193 -18.626)" fill="#2f2f47"/>
      </g>
      <path id="Path_2" data-name="Path 2" d="M0,186H328a3,3,0,0,1-3,3H3A3,3,0,0,1,0,186Z" fill="#393a56"/>
    </g>
  </g>
</svg>
