<svg xmlns="http://www.w3.org/2000/svg" width="100.625" height="39.432" viewBox="0 0 100.625 39.432">
  <path id="logo" d="M0,30.8V1.486H10.653a12.974,12.974,0,0,1,5.14.93,7.53,7.53,0,0,1,3.345,2.642,6.931,6.931,0,0,1,1.177,4.026,7.31,7.31,0,0,1-.909,3.695,6.48,6.48,0,0,1-2.56,2.5,7.125,7.125,0,0,1,3.469,2.746,7.878,7.878,0,0,1,1.239,4.439,7.414,7.414,0,0,1-1.322,4.418,8.6,8.6,0,0,1-3.716,2.89A14.217,14.217,0,0,1,10.859,30.8H0ZM5.946,6.565V13.3H9.992a5,5,0,0,0,3.118-.846,2.962,2.962,0,0,0,1.094-2.5A3.026,3.026,0,0,0,13.11,7.432a4.918,4.918,0,0,0-3.118-.867Zm0,19.159H10.57a5.656,5.656,0,0,0,3.572-.991,3.41,3.41,0,0,0,1.26-2.85,3.408,3.408,0,0,0-1.26-2.848,5.662,5.662,0,0,0-3.572-.991H5.946v7.68ZM25.228,30.8V0h5.781V30.8h-5.78Zm20.893.619a11.521,11.521,0,0,1-4.5-.867,10.861,10.861,0,0,1-5.967-6.07,12.18,12.18,0,0,1-.846-4.583,11.768,11.768,0,0,1,.867-4.563,11.354,11.354,0,0,1,2.415-3.654,10.96,10.96,0,0,1,3.634-2.436,11.763,11.763,0,0,1,4.562-.867,11.5,11.5,0,0,1,4.5.867A10.917,10.917,0,0,1,56.754,15.3a12.025,12.025,0,0,1,.846,4.563,11.924,11.924,0,0,1-.867,4.583,11.3,11.3,0,0,1-2.416,3.675,10.96,10.96,0,0,1-3.633,2.436A11.768,11.768,0,0,1,46.121,31.422Zm.083-5.2a4.951,4.951,0,0,0,2.808-.825,5.787,5.787,0,0,0,1.96-2.25,7.051,7.051,0,0,0,.723-3.242,7.059,7.059,0,0,0-.722-3.241,5.791,5.791,0,0,0-1.961-2.25,5.189,5.189,0,0,0-5.616,0,5.782,5.782,0,0,0-1.961,2.25,7.064,7.064,0,0,0-.723,3.242,7.059,7.059,0,0,0,.723,3.241,5.783,5.783,0,0,0,1.961,2.25,4.944,4.944,0,0,0,2.808.826Zm24.155,3.964a9.13,9.13,0,0,1-3.86-.826,9.492,9.492,0,0,1-3.118-2.291,10.744,10.744,0,0,1-2.065-3.427,11.862,11.862,0,0,1-.743-4.233,12.132,12.132,0,0,1,.764-4.356,10.614,10.614,0,0,1,2.147-3.489A10.174,10.174,0,0,1,66.7,9.228a9.415,9.415,0,0,1,3.985-.846,8.382,8.382,0,0,1,3.8.846A7.4,7.4,0,0,1,77.3,11.685L77.419,9h5.327V28.2a12.537,12.537,0,0,1-.805,4.584,10.077,10.077,0,0,1-5.822,5.842,12.235,12.235,0,0,1-4.522.805,11.846,11.846,0,0,1-4.376-.764,10.468,10.468,0,0,1-3.386-2.126,10.035,10.035,0,0,1-2.271-3.18L67.1,32a5.452,5.452,0,0,0,1.92,1.879,5.641,5.641,0,0,0,5.45-.042,4.938,4.938,0,0,0,1.838-2.023,6.623,6.623,0,0,0,.66-3.035V27a7.793,7.793,0,0,1-2.828,2.333A8.419,8.419,0,0,1,70.359,30.183Zm1.4-5.12a4.849,4.849,0,0,0,2.7-.764,5.556,5.556,0,0,0,1.879-2.064,6.115,6.115,0,0,0,.7-2.952,6.116,6.116,0,0,0-.7-2.953,5.556,5.556,0,0,0-1.879-2.064,5.169,5.169,0,0,0-5.409,0,5.556,5.556,0,0,0-1.879,2.064,6.116,6.116,0,0,0-.7,2.953,6.118,6.118,0,0,0,.7,2.952,5.556,5.556,0,0,0,1.88,2.064A4.846,4.846,0,0,0,71.763,25.063ZM87.37,30.8V9H92.7l.206,3.3a6.392,6.392,0,0,1,2.23-2.664,5.842,5.842,0,0,1,3.3-.929,6.641,6.641,0,0,1,1.156.1,6.366,6.366,0,0,1,1.033.269l-.62,5.7a4.361,4.361,0,0,0-.929-.227,7.5,7.5,0,0,0-.97-.062,4.617,4.617,0,0,0-3.675,1.466,6.113,6.113,0,0,0-1.28,4.15V30.8h-5.78Z" fill="#fff"/>
</svg>
